<?xml version="1.0" encoding="UTF-8"?>
<svg width="160px" height="160px" viewBox="0 0 160 160" version="1.1" xmlns="http://www.w3.org/2000/svg" xmlns:xlink="http://www.w3.org/1999/xlink">
    <!-- Generator: Sketch 58 (84663) - https://sketch.com -->
    <title>icon_install</title>
    <desc>Created with Sketch.</desc>
    <defs>
        <path d="M74.8342921,70 L86.121787,70 C87.066319,70 87.8320136,70.7700317 87.8320136,71.7199139 L87.8320136,86.1671909 L87.8320136,86.1671909 L95.2897735,86.1671909 C96.2343056,86.1671909 97,86.9372226 97,87.8871048 C97,88.2903625 96.8591016,88.680799 96.6019239,88.9901936 L82.7291377,105.67968 C81.7598773,106.845737 80.034185,107.000821 78.874696,106.02607 C78.7562712,105.926514 78.6464348,105.817059 78.5463622,105.698877 L64.4081758,89.0021917 C63.795799,88.278997 63.8823326,87.1934904 64.6014539,86.5776449 C64.9108314,86.3126984 65.3039074,86.1671909 65.7102601,86.1671909 L73.1240656,86.1671909 L73.1240656,86.1671909 L73.1240656,71.7199139 C73.1240656,70.7700317 73.8897601,70 74.8342921,70 Z" id="path-1"></path>
    </defs>
    <g id="软件包安装器" stroke="none" stroke-width="1" fill="none" fill-rule="evenodd">
        <g id="01选择文件" transform="translate(-160.000000, -82.000000)">
            <g id="anzhuangbao备份" transform="translate(160.000000, 82.000000)">
                <path d="M119,58 L119,105.420017 L119,112 C119,115.313708 116.313708,118 113,118 L47,118 C43.6862915,118 41,115.313708 41,112 L41,58 L41,58 L119,58 Z" id="路径" fill="#FFFFFF"></path>
                <path d="M51.4000244,58 L44.8959149,58 L44.8959149,58 L41,58 L49.6254783,44.7300645 C50.7322708,43.0273108 52.6252844,42 54.6561365,42 L105.343864,42 C107.374716,42 109.267729,43.0273108 110.374522,44.7300645 L119,58 L119,58 L114.982501,58 L107.995227,58 L51.4000244,58 Z" id="路径" fill="#FFFFFF"></path>
                <path d="M41,58 L49.6254783,44.7300645 C50.7322708,43.0273108 52.6252844,42 54.6561365,42 L105.343864,42 C107.374716,42 109.267729,43.0273108 110.374522,44.7300645 L119,58 L119,112 C119,115.313708 116.313708,118 113,118 L47,118 C43.6862915,118 41,115.313708 41,112 L41,58 Z M114.0544,60.7999573 L45.8570144,60.7999573 C44.7524449,60.7999573 43.8570144,61.6953878 43.8570144,62.7999573 L43.8570144,112.231673 C43.8570144,113.336243 44.7524449,114.231673 45.8570144,114.231673 L114.0544,114.231673 C115.15897,114.231673 116.0544,113.336243 116.0544,112.231673 L116.0544,62.7999573 C116.0544,61.6953878 115.15897,60.7999573 114.0544,60.7999573 Z M41,58 L115.905237,58 L107.789802,45.8763423 C107.418566,45.321752 106.795165,44.9888723 106.127792,44.9888723 L53.9456245,44.9888723 C53.2717687,44.9888723 52.6432148,45.3282065 52.2735094,45.8915887 L44.3276679,58 L41,58 Z" id="形状" fill="#EBEBEB" fill-rule="nonzero"></path>
                <mask id="mask-2" fill="white">
                    <use xlink:href="#path-1"></use>
                </mask>
                <use id="deepin-deb-installer-m备份-2" fill="#E6E6E6" fill-rule="nonzero" xlink:href="#path-1"></use>
            </g>
        </g>
    </g>
</svg>