<?xml version="1.0" encoding="UTF-8"?>
<svg width="32px" height="32px" viewBox="0 0 32 32" version="1.1" xmlns="http://www.w3.org/2000/svg" xmlns:xlink="http://www.w3.org/1999/xlink">
    <!-- Generator: Sketch 56.2 (81672) - https://sketch.com -->
    <title>logo</title>
    <desc>Created with Sketch.</desc>
    <defs>
        <filter x="-17.9%" y="-14.3%" width="132.1%" height="128.6%" filterUnits="objectBoundingBox" id="filter-1">
            <feOffset dx="0" dy="1" in="SourceAlpha" result="shadowOffsetOuter1"></feOffset>
            <feGaussianBlur stdDeviation="0.5" in="shadowOffsetOuter1" result="shadowBlurOuter1"></feGaussianBlur>
            <feComposite in="shadowBlurOuter1" in2="SourceAlpha" operator="out" result="shadowBlurOuter1"></feComposite>
            <feColorMatrix values="0 0 0 0 0   0 0 0 0 0   0 0 0 0 0  0 0 0 0.15 0" type="matrix" in="shadowBlurOuter1" result="shadowMatrixOuter1"></feColorMatrix>
            <feMerge>
                <feMergeNode in="shadowMatrixOuter1"></feMergeNode>
                <feMergeNode in="SourceGraphic"></feMergeNode>
            </feMerge>
        </filter>
        <radialGradient cx="47.156569%" cy="18.8587223%" fx="47.156569%" fy="18.8587223%" r="79.4742743%" id="radialGradient-2">
            <stop stop-color="#00812B" offset="0%"></stop>
            <stop stop-color="#006174" offset="100%"></stop>
        </radialGradient>
        <linearGradient x1="50%" y1="1.85852605%" x2="50%" y2="100%" id="linearGradient-3">
            <stop stop-color="#FFFFFF" offset="0%"></stop>
            <stop stop-color="#21CCDF" offset="100%"></stop>
        </linearGradient>
    </defs>
    <g id="Page-1" stroke="none" stroke-width="1" fill="none" fill-rule="evenodd">
        <g id="软件包安装器" transform="translate(-70.000000, -69.000000)">
            <g id="logo" transform="translate(70.000000, 69.000000)">
                <g id="deepin-clone-32px">
                    <g id="Group" filter="url(#filter-1)" transform="translate(2.000000, 2.000000)">
                        <circle id="Oval" fill="url(#radialGradient-2)" cx="14" cy="14" r="14"></circle>
                        <g id="编组" transform="translate(1.483051, 1.483051)" fill="url(#linearGradient-3)" fill-rule="nonzero">
                            <path d="M14.9358294,5.10169492 C16.0958252,5.49197947 17.1332427,6.15280937 17.9745763,7.01000211 C17.7394054,7.01613634 17.4932107,7.01639318 17.2423869,7.00790738 C17.2423869,7.00790738 15.0241802,7.11469173 13.7803402,7.75424548 C13.7803402,7.75424548 12.8527887,8.18061465 11.9256179,8.90352165 C11.9256179,8.90352165 11.7288415,9.00492838 11.7383568,9.37752125 C11.7467302,9.74896178 11.5495732,10.7392138 10.8926369,11.3196136 C10.8926369,11.3196136 10.4237229,11.5681369 10.6581799,11.9238287 C10.6581799,11.9238287 10.9748491,12.3978283 11.4209264,11.9000134 C11.4209264,11.9000134 12.5711358,10.6800599 12.6415491,8.71415228 C12.6415491,8.71415228 13.0054141,8.39379923 13.5801382,8.29930661 C13.5801382,8.29930661 13.6859484,11.2485521 12.2662656,12.7293207 C12.2662656,12.7293207 10.9158542,14.245428 10.4819566,11.9948902 C10.4819566,11.9948902 9.9536671,9.85075262 12.676946,7.30444521 C12.676946,7.30444521 13.8996355,6.04568108 14.9358294,5.10169492 Z M5.63559322,9.01302711 C6.638526,7.02201766 8.48411876,5.52425461 10.7068329,4.98305085 C9.75736732,6.74455798 9.27466686,9.05757365 9.32088477,10.564595 C9.32088477,10.564595 9.23352641,13.2126795 11.0859814,14.1519428 C11.0859814,14.1519428 12.7507495,14.8672103 13.8852637,12.55436 C13.8852637,12.55436 14.6650038,11.2491106 14.3476145,8.29920139 C14.3476145,8.29920139 14.6512706,8.3515936 14.6856036,8.39867066 C14.7199366,8.44536806 15.3562411,10.6697591 14.9091495,12.5429704 C14.9091495,12.5429704 14.4975352,14.7442025 12.4737967,15.2476233 C10.4508213,15.7510441 8.87417455,14.5331151 7.80374853,13.3858016 C7.15969959,12.6955265 6.26349467,11.065278 5.63559322,9.01302711 Z M6.40677966,17.2389504 C8.7806932,17.6345872 12.0067995,17.7376534 14.295727,16.1210054 C16.4120405,14.6259824 16.1393609,12.231812 16.1393609,12.231812 C16.1043238,10.4106575 14.9538141,8.60169492 14.9538141,8.60169492 C19.427511,12.5019372 16.7833569,16.8349894 16.7833569,16.8349894 C16.0551119,18.2684413 14.8720718,19.3962458 13.5688847,20.2216681 C13.2360373,20.2655122 12.896506,20.2881356 12.5516928,20.2881356 C10.0444271,20.2881356 7.81642577,19.0919693 6.40677966,17.2389504 Z M1.42434933,12.6355932 L3.97457627,12.6355932 L1.18644068,18.2711864 L-1.60169492,12.6355932 L0.000551270107,12.6355932 C0.000183835342,12.5960673 0,12.556519 0,12.5169492 C0,5.60402902 5.60402902,0 12.5169492,0 C19.4298693,0 25.0338983,5.60402902 25.0338983,12.5169492 C25.0338983,19.4298693 19.4298693,25.0338983 12.5169492,25.0338983 C8.8533381,25.0338983 5.44462438,23.4500402 3.08251594,20.74311 C2.82402397,20.4468833 2.85461405,19.9971949 3.1508408,19.7387029 C3.44706755,19.480211 3.89675591,19.510801 4.15524788,19.8070278 C6.24976676,22.2073055 9.26895232,23.6101695 12.5169492,23.6101695 C18.6435656,23.6101695 23.6101695,18.6435656 23.6101695,12.5169492 C23.6101695,6.39033273 18.6435656,1.42372881 12.5169492,1.42372881 C6.39033273,1.42372881 1.42372881,6.39033273 1.42372881,12.5169492 C1.42372881,12.5565243 1.42393576,12.5960726 1.42434933,12.6355932 Z" id="Combined-Shape"></path>
                        </g>
                        <g id="logo" transform="translate(7.988701, 7.039548)"></g>
                    </g>
                </g>
            </g>
        </g>
    </g>
</svg>