<?xml version="1.0" encoding="UTF-8"?>
<svg width="85px" height="85px" viewBox="0 0 85 85" version="1.1" xmlns="http://www.w3.org/2000/svg" xmlns:xlink="http://www.w3.org/1999/xlink">
    <title>status/64/dialog-warning</title>
    <defs>
        <filter x="-8.6%" y="-7.3%" width="117.3%" height="117.3%" filterUnits="objectBoundingBox" id="filter-1">
            <feOffset dx="0" dy="1" in="SourceAlpha" result="shadowOffsetOuter1"></feOffset>
            <feGaussianBlur stdDeviation="2" in="shadowOffsetOuter1" result="shadowBlurOuter1"></feGaussianBlur>
            <feColorMatrix values="0 0 0 0 0   0 0 0 0 0   0 0 0 0 0  0 0 0 0.2 0" type="matrix" in="shadowBlurOuter1" result="shadowMatrixOuter1"></feColorMatrix>
            <feMerge>
                <feMergeNode in="shadowMatrixOuter1"></feMergeNode>
                <feMergeNode in="SourceGraphic"></feMergeNode>
            </feMerge>
        </filter>
        <linearGradient x1="50%" y1="0%" x2="50%" y2="100%" id="linearGradient-2">
            <stop stop-color="#FADA00" offset="0%"></stop>
            <stop stop-color="#F38C00" offset="100%"></stop>
        </linearGradient>
        <linearGradient x1="50%" y1="0%" x2="50%" y2="100%" id="linearGradient-3">
            <stop stop-color="#000000" stop-opacity="0.05" offset="0%"></stop>
            <stop stop-color="#000000" stop-opacity="0.1" offset="100%"></stop>
        </linearGradient>
    </defs>
    <g id="适配v20子系统" stroke="none" stroke-width="1" fill="none" fill-rule="evenodd">
        <g id="卸载" transform="translate(-229, -142)" fill-rule="nonzero">
            <g id="dialog-warning" transform="translate(233.8906, 145.8906)" filter="url(#filter-1)">
                <circle id="Oval" fill="url(#linearGradient-2)" cx="37.609375" cy="37.609375" r="37.609375"></circle>
                <path d="M37.609375,0 C58.3804593,0 75.21875,16.8382907 75.21875,37.609375 C75.21875,58.3804593 58.3804593,75.21875 37.609375,75.21875 C16.8382907,75.21875 0,58.3804593 0,37.609375 C0,16.8382907 16.8382907,0 37.609375,0 Z M37.609375,1.296875 C17.554535,1.296875 1.296875,17.554535 1.296875,37.609375 C1.296875,57.664215 17.554535,73.921875 37.609375,73.921875 C57.664215,73.921875 73.921875,57.664215 73.921875,37.609375 C73.921875,17.554535 57.664215,1.296875 37.609375,1.296875 Z" id="Oval" fill="url(#linearGradient-3)"></path>
                <path d="M37.6630241,46.6875 L37.6630241,46.6875 C35.9709079,46.6875 34.584984,45.4459819 34.5305947,43.8801032 L33.7207961,20.5764728 C33.6502912,18.5445588 35.410898,16.859375 37.6086347,16.859375 L37.6086347,16.859375 C39.8003282,16.859375 41.5589205,18.5333739 41.4984878,20.5596955 L40.7954537,43.86519 C40.749122,45.4385253 39.3611838,46.6875 37.6630241,46.6875 L37.6630241,46.6875 Z" id="Shape" fill="#FFFFFF"></path>
                <circle id="Oval" fill="#FFFFFF" cx="37.609375" cy="55.765625" r="3.890625"></circle>
            </g>
        </g>
    </g>
</svg>