<?xml version="1.0" encoding="UTF-8"?>
<svg width="32px" height="32px" viewBox="0 0 32 32" version="1.1" xmlns="http://www.w3.org/2000/svg" xmlns:xlink="http://www.w3.org/1999/xlink">
    <!-- Generator: Sketch 56.2 (81672) - https://sketch.com -->
    <title>warning</title>
    <desc>Created with Sketch.</desc>
    <defs>
        <linearGradient x1="50%" y1="0%" x2="50%" y2="97.6283482%" id="linearGradient-1">
            <stop stop-color="#FFD200" offset="0%"></stop>
            <stop stop-color="#FFB223" offset="100%"></stop>
        </linearGradient>
        <path d="M0,15 C0,12.958324 0.39582936,11.013032 1.1875,9.164064 C1.9791708,7.315096 3.044264,5.72136 4.382812,4.382812 C5.72136,3.044264 7.315096,1.979172 9.164064,1.1875 C11.013032,0.395828 12.958324,0 15,0 C17.03126,0 18.971344,0.395828 20.820312,1.1875 C22.66928,1.979172 24.26562,3.044264 25.609376,4.382812 C26.953132,5.72136 28.020828,7.315096 28.8125,9.164064 C29.604172,11.013032 30,12.958324 30,15 C30,17.03126 29.604172,18.973948 28.8125,20.828124 C28.020828,22.6823 26.953132,24.27864 25.609376,25.617188 C24.26562,26.955736 22.66928,28.0208292 20.820312,28.8125 C18.971344,29.6041706 17.03126,30 15,30 C12.958324,30 11.013032,29.6041706 9.164064,28.8125 C7.315096,28.0208292 5.72136,26.955736 4.382812,25.617188 C3.044264,24.27864 1.9791708,22.6823 1.1875,20.828124 C0.39582936,18.973948 0,17.03126 0,15 L0,15 Z" id="path-2"></path>
        <filter x="-6.7%" y="-3.3%" width="113.3%" height="113.3%" filterUnits="objectBoundingBox" id="filter-3">
            <feOffset dx="0" dy="1" in="SourceAlpha" result="shadowOffsetOuter1"></feOffset>
            <feGaussianBlur stdDeviation="0.5" in="shadowOffsetOuter1" result="shadowBlurOuter1"></feGaussianBlur>
            <feColorMatrix values="0 0 0 0 0   0 0 0 0 0   0 0 0 0 0  0 0 0 0.2 0" type="matrix" in="shadowBlurOuter1"></feColorMatrix>
        </filter>
    </defs>
    <g id="页面-1" stroke="none" stroke-width="1" fill="none" fill-rule="evenodd">
        <g id="按钮规范" transform="translate(-131.000000, -37.000000)">
            <g id="warning" transform="translate(131.000000, 37.000000)">
                <g id="Page-1-+-Path-+-Rectangle-115" transform="translate(1.000000, 0.000000)">
                    <g id="Page-1">
                        <use fill="black" fill-opacity="1" filter="url(#filter-3)" xlink:href="#path-2"></use>
                        <use fill="url(#linearGradient-1)" fill-rule="evenodd" xlink:href="#path-2"></use>
                    </g>
                    <path d="M12.7777778,21.2013889 C12.7777778,21.8472249 13.0069458,22.3993049 13.4652818,22.8576369 C13.9236138,23.3159729 14.4756938,23.5451409 15.1215298,23.5451409 C15.7673658,23.5451409 16.3194458,23.3159729 16.7777778,22.8576369 C17.2361138,22.3993049 17.4652818,21.8472249 17.4652818,21.2013889 C17.4652818,20.5555529 17.2361138,20.0034729 16.7777778,19.5451409 C16.3402778,19.1076369 15.7881978,18.8888889 15.1215298,18.8888889 C14.4548618,18.8888889 13.9027818,19.1076369 13.4652818,19.5451409 C13.0069458,20.0034729 12.7777778,20.5555529 12.7777778,21.2013889 L12.7777778,21.2013889 Z" id="Path" fill="#FFFFFF"></path>
                    <rect id="Rectangle-115" fill="#FFFFFF" x="13.3333333" y="5.55555556" width="3.33333333" height="11.1111111" rx="1.66666667"></rect>
                </g>
            </g>
        </g>
    </g>
</svg>